<?xml version="1.0" encoding="utf-8"?>
<!-- Generator: Adobe Illustrator 15.0.0, SVG Export Plug-In . SVG Version: 6.00 Build 0)  -->
<!DOCTYPE svg PUBLIC "-//W3C//DTD SVG 1.1//EN" "http://www.w3.org/Graphics/SVG/1.1/DTD/svg11.dtd">
<svg version="1.1" id="Capa_1" xmlns="http://www.w3.org/2000/svg" xmlns:xlink="http://www.w3.org/1999/xlink" x="0px" y="0px"
	 width="102px" height="100px" viewBox="0 0 102 100" enable-background="new 0 0 102 100" xml:space="preserve">
<g>
	<path fill="#244860" d="M76.233,90.352c0,1.285-1.042,2.327-2.326,2.327H13.104c-1.285,0-2.327-1.042-2.327-2.327v-63.88
		c0-1.285,1.042-2.327,2.327-2.327h60.803c1.285,0,2.326,1.042,2.326,2.327V90.352z"/>
	<circle fill="#4DB05C" cx="31.587" cy="31.267" r="2.565"/>
	<circle fill="#F5991A" cx="24.885" cy="31.267" r="2.565"/>
	<circle fill="#EA5C0B" cx="18.455" cy="31.267" r="2.565"/>
	<path fill="#FDFBFB" d="M73.225,87.821c0,1.285-1.042,2.327-2.327,2.327H16.626c-1.285,0-2.327-1.042-2.327-2.327V40.22
		c0-1.285,1.042-2.327,2.327-2.327h54.271c1.286,0,2.327,1.042,2.327,2.327V87.821z"/>
	<rect x="17.565" y="41.176" fill="#4BB167" width="52.512" height="46.168"/>
	<rect x="17.685" y="41.176" fill="#29AA5D" width="20.28" height="46.168"/>
	<path fill="#244860" d="M92.598,81.338c0,1.286-1.042,2.327-2.327,2.327H55.716c-1.285,0-2.327-1.041-2.327-2.327V14.092
		c0-1.285,1.042-2.327,2.327-2.327h34.555c1.285,0,2.327,1.042,2.327,2.327V81.338z"/>
	<rect x="56.809" y="22.846" fill="#FDFBFB" width="32.968" height="49.381"/>
	<rect x="59.51" y="25.479" fill="#4BB167" width="27.906" height="44.321"/>
	<rect x="59.51" y="25.479" fill="#29AA5D" width="27.906" height="22.262"/>
	<path fill="#112734" d="M79.004,17.682c0,0.623-0.506,1.129-1.129,1.129H67.821c-0.624,0-1.128-0.506-1.128-1.129l0,0
		c0-0.624,0.505-1.129,1.128-1.129h10.054C78.498,16.552,79.004,17.058,79.004,17.682L79.004,17.682z"/>
	<circle fill="#112734" cx="73.31" cy="78.264" r="2.514"/>
</g>
</svg>
