<?xml version="1.0" encoding="utf-8"?>
<!-- Generator: Adobe Illustrator 15.0.0, SVG Export Plug-In . SVG Version: 6.00 Build 0)  -->
<!DOCTYPE svg PUBLIC "-//W3C//DTD SVG 1.1//EN" "http://www.w3.org/Graphics/SVG/1.1/DTD/svg11.dtd">
<svg version="1.1" id="Capa_1" xmlns="http://www.w3.org/2000/svg" xmlns:xlink="http://www.w3.org/1999/xlink" x="0px" y="0px"
	 width="100px" height="100px" viewBox="50.5 0 100 100" enable-background="new 50.5 0 100 100" xml:space="preserve">
<g>
	<g id="g5_1_">
		<g id="g7_1_">
			<g id="g9_1_">
				<path fill="#E52133" d="M140.278,23.661c0.585-0.216,0.894-0.401,0.894-0.832c0-1.232-1.387-2.65-3.051-2.65
					c-1.231,0-3.543,0.956-3.543,4.284c0,0.524,0.061,1.079,0.092,1.634L140.278,23.661z M143.173,32.845
					c-0.338,0.185-0.678,0.4-1.018,0.555c-1.018,0.461-2.064,0.585-2.988,0.585c-0.985,0-2.527-0.062-4.1-1.202
					c-2.188-1.542-3.143-4.191-3.143-6.503c0-4.776,3.883-7.118,7.057-7.118c1.109,0,2.251,0.278,3.174,0.863
					c1.541,1.016,1.941,2.341,2.157,3.05l-7.241,2.928l-2.373,0.185c0.771,3.913,3.42,6.193,6.348,6.193
					c1.572,0,2.713-0.555,3.762-1.079L143.173,32.845"/>
				<path id="path13_1_" fill="#168F38" d="M131.186,33.522h-5.455c0.71-0.925,0.832-1.017,0.832-1.633v-5.023
					c0-2.404,0.03-5.825,0.124-9.03c0.031-1.571,0.154-3.543,0.186-4.961h-2.404l2.312-1.11h4.406
					c-0.954,0.556-1.264,0.741-1.387,1.819c-0.246,2.372-0.277,6.132-0.277,10.508v7.119c0,1.202,0.216,1.386,1.232,1.479
					c0.523,0.062,1.049,0.093,1.572,0.154L131.186,33.522z"/>
				<path fill="#1061A9" d="M119.785,28.5c0.709-0.71,0.771-1.696,0.771-2.251c0-2.218-1.325-5.67-3.885-5.67
					c-0.801,0-1.662,0.401-2.155,1.018c-0.524,0.647-0.681,1.479-0.681,2.28c0,2.064,1.203,5.486,3.854,5.486
					C118.458,29.362,119.291,28.992,119.785,28.5z M118.891,34.354c-0.247-0.031-0.401-0.031-0.709-0.031
					c-0.277,0-1.942,0.062-3.237,0.494c-0.676,0.247-2.648,0.986-2.648,3.174s2.127,3.759,5.424,3.759
					c2.959,0,4.529-1.417,4.529-3.328C122.25,36.85,121.233,36.019,118.891,34.354 M121.08,20.671
					c0.709,0.586,2.188,1.818,2.188,4.161c0,2.281-1.295,3.359-2.59,4.376c-0.399,0.401-0.862,0.832-0.862,1.51
					c0,0.678,0.463,1.048,0.801,1.325l1.109,0.863c1.356,1.14,2.589,2.188,2.589,4.315c0,2.896-2.805,5.824-8.105,5.824
					c-4.468,0-6.625-2.126-6.625-4.407c0-1.109,0.555-2.681,2.375-3.76c1.909-1.171,4.498-1.324,5.885-1.417
					c-0.433-0.555-0.924-1.141-0.924-2.095c0-0.524,0.152-0.833,0.309-1.203c-0.342,0.03-0.678,0.062-0.987,0.062
					c-3.266,0-5.114-2.436-5.114-4.839c0-1.417,0.646-2.99,1.973-4.129c1.757-1.448,3.852-1.695,5.516-1.695h6.348l-1.971,1.109
					H121.08"/>
				<path fill="#FFE505" d="M105.825,31.426c0.739-0.985,0.925-2.218,0.925-3.42c0-2.712-1.295-7.888-5.117-7.888
					c-1.016,0-2.032,0.4-2.771,1.047c-1.202,1.079-1.418,2.435-1.418,3.76c0,3.05,1.512,8.073,5.239,8.073
					C103.882,32.998,105.115,32.413,105.825,31.426z M101.972,33.922c-4.899,0-7.52-3.821-7.52-7.272
					c0-4.036,3.297-7.488,7.98-7.488c4.531,0,7.365,3.544,7.365,7.272C109.798,30.07,106.996,33.922,101.972,33.922"/>
				<path fill="#E52133" d="M89.429,31.426c0.74-0.985,0.925-2.218,0.925-3.42c0-2.712-1.294-7.888-5.116-7.888
					c-1.018,0-2.033,0.4-2.771,1.047c-1.202,1.079-1.42,2.435-1.42,3.76c0,3.05,1.512,8.073,5.24,8.073
					C87.489,32.998,88.721,32.413,89.429,31.426z M85.578,33.922c-4.9,0-7.52-3.821-7.52-7.272c0-4.036,3.297-7.488,7.982-7.488
					c4.527,0,7.363,3.544,7.363,7.272C93.405,30.07,90.601,33.922,85.578,33.922"/>
				<path id="path21_1_" fill="#1061A9" d="M76.099,32.848l-4.131,0.954c-1.678,0.26-3.18,0.491-4.769,0.491
					c-7.975,0-11.008-5.865-11.008-10.459c0-5.605,4.306-10.805,11.673-10.805c1.561,0,3.062,0.231,4.42,0.606
					c2.168,0.608,3.18,1.358,3.813,1.792L73.7,17.71l-1.011,0.23l0.723-1.156c-0.98-0.952-2.773-2.715-6.183-2.715
					c-4.565,0-8.004,3.467-8.004,8.524c0,5.43,3.93,10.544,10.228,10.544c1.852,0,2.803-0.375,3.67-0.722v-4.652l-4.361,0.231
					l2.311-1.243h6.125l-0.75,0.722c-0.203,0.173-0.23,0.231-0.29,0.461c-0.028,0.261-0.058,1.099-0.058,1.387V32.848L76.099,32.848
					z"/>
			</g>
		</g>
	</g>
	<g>
		<circle opacity="0.6" fill="#97B5E0" enable-background="new    " cx="102.373" cy="50.013" r="25.417"/>
		<path fill="#B0AFAF" stroke="#A5A5A4" stroke-width="0.5" stroke-miterlimit="10" d="M126.443,41.852
			c0.869,2.562,1.346,5.305,1.346,8.161c0,14.038-11.379,25.417-25.416,25.417c-10.213,0-19.013-6.025-23.054-14.712
			c3.399,10.032,12.89,17.255,24.07,17.255c14.036,0,25.418-11.381,25.418-25.417C128.807,48.729,127.957,45.105,126.443,41.852z"/>
		<path opacity="0.6" fill="#6687C5" enable-background="new    " d="M84.041,57.593c-3.056-10.573,3.037-21.621,13.611-24.677
			c8.639-2.497,17.594,1.117,22.247,8.291c-4.104-8.689-14.015-13.367-23.541-10.613C85.784,33.65,79.69,44.698,82.748,55.271
			c0.559,1.934,1.387,3.715,2.428,5.321C84.725,59.638,84.341,58.639,84.041,57.593z"/>
		<path fill="#DDDDDD" stroke="#A5A5A4" stroke-width="0.5" stroke-miterlimit="10" d="M102.373,24.595
			c-14.037,0-25.416,11.38-25.416,25.417c0,14.038,11.379,25.417,25.416,25.417s25.416-11.38,25.416-25.417
			C127.789,35.976,116.41,24.595,102.373,24.595z M102.373,69.838c-10.949,0-19.826-8.876-19.826-19.825
			c0-10.949,8.877-19.826,19.826-19.826c10.948,0,19.825,8.876,19.825,19.826C122.198,60.963,113.321,69.838,102.373,69.838z"/>
		<path fill="#C5B9A9" d="M132.901,77.07c1.549,1.676,1.705,4.049,0.351,5.302l-0.287,0.264c-1.354,1.253-3.707,0.908-5.256-0.767
			l-7.496-8.113c-1.549-1.676-1.707-4.049-0.352-5.301l0.286-0.266c1.354-1.252,3.708-0.908,5.257,0.768L132.901,77.07z"/>
		<path fill="#69635C" d="M141.358,84.764c1.688,1.826,1.577,4.676-0.25,6.362l-0.387,0.356c-1.827,1.688-4.675,1.574-6.364-0.252
			l-8.173-8.845c-1.688-1.827-1.575-4.676,0.251-6.364l0.385-0.355c1.828-1.688,4.676-1.575,6.364,0.252L141.358,84.764z"/>
	</g>
	<ellipse opacity="0.39" fill="#FFFFFF" enable-background="new    " cx="100.945" cy="57.546" rx="12.079" ry="10.016"/>
</g>
</svg>
